# xmcd
#
# Track frame offsets: 
#        150
#        2762
#        16293
#        30359
#        52229
#        85037
#        97634
#        110127
#        125886
#        153967
#        180344
#        192383
#
# Disc length: 2821 seconds
#
# Revision: 0
# Processed by: cddbd v1.5.2PL0 Copyright (c) Steve Scherf et al.
# Submitted via: ExactAudioCopy v0.99pb3
#
DISCID=8d0b030c
DTITLE=Live At The Whiskey A Go Go - Otis Redding
DYEAR=2009
DGENRE=Soul
TTITLE0=Introduction
TTITLE1=I'm Depending on You
TTITLE2=Your One An Only Man
TTITLE3=Good To Me
TTITLE4=Chained And Bound
TTITLE5=Ol' Man Trouble
TTITLE6=Pain In My Heart
TTITLE7=These Arms Of Mine
TTITLE8=I Can't Turn You Loose
TTITLE9=I've Been Loving You Too Long
TTITLE10=Security
TTITLE11=A Hard Day's Night
EXTD=
EXTT0=
EXTT1=
EXTT2=
EXTT3=
EXTT4=
EXTT5=
EXTT6=
EXTT7=
EXTT8=
EXTT9=
EXTT10=
EXTT11=
PLAYORDER=
